<?xml version="1.0" encoding="UTF-8" standalone="no"?>
<svg
   version="1.0"
   width="1244.000000pt"
   height="1280.000000pt"
   viewBox="0 0 1244.000000 1280.000000"
   preserveAspectRatio="xMidYMid meet"
   id="svg8"
   sodipodi:docname="tmpLogo.svg"
   inkscape:version="1.2 (dc2aeda, 2022-05-15)"
   xmlns:inkscape="http://www.inkscape.org/namespaces/inkscape"
   xmlns:sodipodi="http://sodipodi.sourceforge.net/DTD/sodipodi-0.dtd"
   xmlns="http://www.w3.org/2000/svg"
   xmlns:svg="http://www.w3.org/2000/svg">
  <defs
     id="defs12" />
  <sodipodi:namedview
     id="namedview10"
     pagecolor="#ffffff"
     bordercolor="#000000"
     borderopacity="0.25"
     inkscape:showpageshadow="2"
     inkscape:pageopacity="0.0"
     inkscape:pagecheckerboard="0"
     inkscape:deskcolor="#d1d1d1"
     inkscape:document-units="pt"
     showgrid="true"
     inkscape:zoom="0.13828125"
     inkscape:cx="715.9322"
     inkscape:cy="1634.3503"
     inkscape:window-width="1440"
     inkscape:window-height="900"
     inkscape:window-x="0"
     inkscape:window-y="0"
     inkscape:window-maximized="0"
     inkscape:current-layer="svg8">
    <inkscape:grid
       type="xygrid"
       id="grid118" />
  </sodipodi:namedview>
  <metadata
     id="metadata2">
Created by potrace 1.15, written by Peter Selinger 2001-2017
</metadata>
  <g
     transform="translate(0.000000,1280.000000) scale(0.100000,-0.100000)"
     fill="#000000"
     stroke="none"
     id="g6">
    <path
       d="M6250 12793 c-200 -13 -437 -47 -621 -89 -1294 -291 -2483 -1264 -3267 -2674 -308 -553 -537 -1204 -605 -1720 l-12 -95 -117 -60 c-863 -445 -1410 -1243 -1577 -2305 -40 -252 -46 -341 -46 -665 0 -312 5 -392 41 -645 103 -729 418 -1413 732 -1589 14 -8 14 -11 2 -26 -12 -15 -11 -15 11 -5 20 9 37 7 87 -9 74 -25 215 -28 307 -6 32 8 61 12 63 10 2 -2 -10 -13 -27 -26 -17 -13 -31 -26 -31 -31 0 -4 28 13 63 38 34 25 102 66 151 91 225 113 495 312 831 610 38 35 74 63 78 63 12 0 -10 -29 -274 -366 -130 -166 -240 -308 -245 -315 -7 -13 28 16 206 170 125 108 127 110 110 86 -8 -11 -23 -30 -34 -42 -46 -53 6 -13 187 144 105 92 260 225 342 297 83 71 161 139 174 150 15 14 -23 -71 -112 -249 -74 -148 -134 -271 -133 -272 1 -2 78 78 171 177 93 99 170 178 172 176 2 -2 -15 -38 -38 -80 -23 -42 -40 -78 -38 -80 2 -2 132 133 289 299 157 167 286 302 288 301 1 -2 -5 -83 -13 -181 -9 -97 -15 -179 -13 -180 2 -2 65 84 141 192 76 107 140 193 142 191 1 -1 -1 -43 -5 -93 -5 -49 -7 -91 -5 -93 2 -2 15 13 29 34 30 45 23 68 72 -231 61 -377 114 -625 195 -907 190 -663 514 -1267 970 -1807 57 -68 113 -135 125 -150 15 -18 30 -74 53 -191 18 -91 38 -189 45 -218 l12 -53 79 -35 c328 -143 727 -256 1045 -298 101 -13 326 -30 260 -19 -25 4 -25 5 -20 78 3 47 1 75 -5 75 -5 0 27 18 71 39 191 91 327 219 443 419 41 70 44 72 74 68 18 -3 73 -8 122 -11 253 -17 639 -94 819 -163 42 -17 76 -27 74 -24 -189 381 -262 549 -354 815 -186 541 -297 1118 -345 1807 -15 213 -15 891 0 1130 30 472 68 848 137 1325 45 319 117 762 125 769 20 17 249 156 257 156 6 0 85 -73 177 -161 91 -89 167 -160 169 -158 1 2 36 63 76 134 40 72 78 136 83 143 8 10 30 -6 96 -70 47 -46 116 -112 152 -146 l66 -64 128 224 c70 122 128 224 129 225 0 0 132 -59 291 -133 160 -73 291 -130 293 -125 1 4 -16 59 -38 121 -22 62 -39 115 -36 117 2 2 126 -53 276 -122 150 -69 274 -124 276 -122 2 2 -34 111 -81 242 -47 131 -84 239 -83 240 2 2 181 -44 398 -101 217 -57 395 -102 397 -101 1 2 -50 42 -114 90 -64 48 -113 87 -107 87 5 0 164 -40 353 -90 190 -49 346 -88 347 -87 1 1 -92 72 -207 157 -114 85 -208 157 -209 160 0 3 69 1 153 -3 256 -14 526 10 737 68 63 17 70 17 198 -2 73 -11 129 -17 125 -13 -4 4 -47 22 -95 40 l-87 32 57 38 c100 65 179 154 235 265 l25 50 158 -7 c87 -4 160 -5 161 -4 2 2 -65 18 -147 36 -126 28 -150 36 -144 49 45 112 67 447 41 641 -43 325 -143 627 -333 1010 -533 1072 -1561 2148 -2709 2837 -780 468 -1571 736 -2345 793 -123 9 -410 11 -520 3z m-370 -6788 c0 -3 -20 -46 -45 -96 l-46 -90 -69 48 c-38 26 -69 50 -70 53 0 4 204 86 223 89 4 0 7 -1 7 -4z m-170 -350 c0 -13 -55 -115 -63 -115 -4 0 -36 19 -70 42 -49 34 -58 43 -42 46 11 3 47 10 80 17 65 15 95 18 95 10z m-99 -212 c-208 -429 -435 -1065 -531 -1483 -12 -52 -25 -106 -29 -119 -6 -20 -23 5 -112 167 -58 105 -163 305 -234 445 l-128 254 37 94 c21 52 41 98 46 103 5 5 75 -1 164 -14 86 -13 158 -21 161 -18 3 3 0 53 -6 112 -6 59 -9 109 -6 113 4 3 68 -3 144 -15 76 -11 140 -19 142 -17 2 3 -4 75 -13 162 -9 87 -18 167 -19 178 -2 18 15 23 178 56 99 21 192 37 207 38 l26 1 -27 -57z"
       id="path4" />
  </g>
  <text
     xml:space="preserve"
     style="font-size:144px;fill:#000000;stroke-width:0.75"
     x="206.10172"
     y="515.25427"
     id="text174"><tspan
       sodipodi:role="line"
       id="tspan172"
       style="font-style:normal;font-variant:normal;font-weight:normal;font-stretch:normal;font-size:144px;font-family:Verdana;-inkscape-font-specification:Verdana;fill:#ffff00;stroke-width:0.75"
       x="206.10172"
       y="515.25427">Rhizosphere</tspan></text>
</svg>
